<svg  style="fill: #f29c2f"  height="512pt" viewBox="0 -67 512 512" width="512pt" xmlns="http://www.w3.org/2000/svg"><path d="m504.394531 271.789062h-6.585937v-25.464843c0-18.34375-14.929688-33.296875-33.347656-33.335938h-14.941407c-.09375-.003906-.183593-.003906-.273437 0h-4.898438v-5.824219c23.976563-10.351562 40.804688-34.222656 40.804688-61.957031v-4.691406c0-4.199219-3.402344-7.605469-7.601563-7.605469-4.203125 0-7.605469 3.40625-7.605469 7.605469v4.691406c0 28.808594-23.433593 52.242188-52.238281 52.242188-13.953125 0-27.074219-5.433594-36.9375-15.296875-9.867187-9.867188-15.300781-22.988282-15.300781-36.945313v-17.953125c12.695312-3.230468 19.578125-14.269531 23.007812-22.355468 9.289063 3.949218 25.546876 9.386718 44.738282 9.382812 10.078125 0 20.972656-1.5 32.078125-5.5 1.601562-.578125 3.144531-1.207031 4.652343-1.859375v3.175781c0 4.199219 3.402344 7.605469 7.605469 7.605469 4.199219 0 7.601563-3.40625 7.601563-7.605469v-12.34375c6.460937-5.335937 11.390625-11.851562 14.707031-19.53125 11.949219-27.667968-1.785156-59.941406-2.375-61.300781-1.03125-2.371094-3.195313-4.058594-5.746094-4.476563-2.546875-.417968-5.136719.488282-6.871093 2.402344-12.082032 13.367188-33.804688 11.140625-56.800782 8.785156-5.886718-.601562-11.972656-1.226562-17.976562-1.59375-18.09375-1.097656-34.65625 8.257813-43.019532 23.746094-6.488281-.40625-12.925781 1.421875-18.359374 5.347656-7.308594 5.273438-11.601563 13.460938-11.773438 22.464844-.398438 20.894532 10.007812 42.546875 13.320312 48.894532v22.714843c0 18.019531 7.015626 34.957031 19.757813 47.699219 6.136719 6.136719 13.257813 10.929688 20.996094 14.265625v5.816406h-4.902344c-.089844-.003906-.179687 0-.273437 0h-14.941407c-18.390625 0-33.347656 14.953125-33.347656 33.335938v25.46875h-6.355469v-65.5625c0-4.199219-3.402344-7.605469-7.601562-7.605469h-152.921875v-66.613281c0-4.203125-3.40625-7.605469-7.605469-7.605469h-65.21875c-4.199219 0-7.605469 3.402344-7.605469 7.605469 0 4.199219 3.40625 7.601562 7.605469 7.601562h57.613281v66.617188c0 4.199219 3.40625 7.601562 7.605469 7.601562h152.921875v65.5625c0 4.199219 3.40625 7.605469 7.605469 7.605469h173.203125v76.800781h-481.585938v-224.1875h52.21875c4.199219 0 7.601563-3.402343 7.601563-7.601562 0-4.203125-3.402344-7.605469-7.601563-7.605469h-59.820312c-4.199219 0-7.605469 3.402344-7.605469 7.605469v239.390625c0 4.199218 3.40625 7.601562 7.605469 7.601562h496.789062c4.199219 0 7.605469-3.402344 7.605469-7.601562v-92.007813c0-4.199219-3.40625-7.605469-7.605469-7.605469zm-146.785156-208.328124c2.300781-1.65625 4.980469-2.511719 7.714844-2.511719 1.320312 0 2.652343.199219 3.960937.609375 3.855469 1.199218 7.976563-.828125 9.382813-4.609375 4.699219-12.625 16.957031-20.5625 30.5-19.726563 5.691406.34375 11.617187.953125 17.347656 1.539063 21.460937 2.199219 43.527344 4.460937 60.269531-5.886719 2.617188 9.953125 4.984375 25.726562-.886718 39.316406-4.414063 10.21875-13.078126 17.714844-25.757813 22.28125-36.628906 13.199219-72.019531-6.5625-72.363281-6.753906-2.101563-1.210938-4.664063-1.328125-6.882813-.34375-2.21875.988281-3.835937 2.988281-4.34375 5.363281-.015625.054688-1.253906 5.703125-4.574219 11.085938-3.34375 5.429687-6.949218 7.636719-9.769531 8.535156-3.640625-7.625-10.34375-23.730469-10.0625-38.46875.078125-4.179687 2.074219-7.980469 5.464844-10.429687zm56.339844 174.492187c1.15625.652344 2.445312.980469 3.730469.980469 1.289062 0 2.574218-.328125 3.734374-.980469l14.328126-8.074219-18.0625 33.496094-18.0625-33.492188zm3.757812-25.292969c3.898438 0 7.714844-.351562 11.433594-.992187v4.476562l-11.460937 6.457031-11.457032-6.457031v-4.476562c3.757813.644531 7.59375.992187 11.484375.992187zm-64.953125 33.664063c0-9.996094 8.136719-18.128907 18.140625-18.128907h10.539063l23.507812 43.59375h-52.183594v-25.464843zm77.667969 25.464843 23.507813-43.59375h10.566406c9.984375.019532 18.105468 8.152344 18.105468 18.128907v25.464843zm0 0"/><path d="m446.597656 140.585938v-8.316407c0-4.199219-3.402344-7.601562-7.601562-7.601562-4.199219 0-7.605469 3.402343-7.605469 7.601562v8.316407c0 4.199218 3.40625 7.605468 7.605469 7.605468 4.199218 0 7.601562-3.402344 7.601562-7.605468zm0 0"/><path d="m404.023438 140.585938v-8.316407c0-4.199219-3.40625-7.601562-7.605469-7.601562s-7.601563 3.402343-7.601563 7.601562v8.316407c0 4.199218 3.402344 7.605468 7.601563 7.605468s7.605469-3.402344 7.605469-7.605468zm0 0"/><path d="m408.402344 176.765625c2.484375-2.484375 5.789062-3.855469 9.304687-3.855469s6.820313 1.371094 9.304688 3.855469c1.484375 1.484375 3.429687 2.226563 5.375 2.226563 1.949219 0 3.894531-.742188 5.378906-2.226563 2.96875-2.96875 2.96875-7.785156 0-10.753906-5.359375-5.359375-12.480469-8.308594-20.058594-8.308594s-14.703125 2.949219-20.058593 8.308594c-2.96875 2.96875-2.96875 7.785156 0 10.753906s7.785156 2.96875 10.753906 0zm0 0"/><path d="m19.964844 14.851562 276.214844 87.882813-16.113282 8.335937c-3.730468 1.929688-5.191406 6.515626-3.261718 10.246094 1.351562 2.613282 4.007812 4.113282 6.761718 4.113282 1.175782 0 2.367188-.273438 3.484375-.851563l32.421875-16.769531c3.726563-1.929688 5.1875-6.519532 3.257813-10.246094l-16.769531-32.421875c-1.929688-3.730469-6.515626-5.191406-10.246094-3.257813-3.730469 1.925782-5.191406 6.515626-3.261719 10.246094l8.335937 16.113282-276.210937-87.882813c-4-1.273437-8.277344.941406-9.550781 4.941406-1.273438 4 .9375 8.277344 4.9375 9.550781zm0 0"/></svg>