<svg enable-background="new 0 0 512 512" height="512" viewBox="0 0 512 512" width="512" xmlns="http://www.w3.org/2000/svg"><path d="m452 0h-392c-33.084 0-60 26.916-60 60v392c0 33.084 26.916 60 60 60h392c33.084 0 60-26.916 60-60v-392c0-33.084-26.916-60-60-60zm20 452c0 11.028-8.972 20-20 20h-114v-163h61.79l10.21-62h-72v-43c0-16.975 13.025-30 30-30h41v-62h-41c-50.923 0-91.978 41.25-91.978 92.174v42.826h-60.022v62h60.022v163h-216.022c-11.028 0-20-8.972-20-20v-392c0-11.028 8.972-20 20-20h392c11.028 0 20 8.972 20 20z" fill="#99261e"/></svg>