<svg style="fill: #f29c2f" height="512pt" viewBox="0 0 512 512" width="512pt" xmlns="http://www.w3.org/2000/svg"><path d="m77.109375 401.664062h-21.945313c-30.417968 0-55.164062 24.75-55.164062 55.167969v40.167969c0 8.285156 6.714844 15 15 15h64.691406c-1.667968-4.695312-2.582031-9.742188-2.582031-15zm0 0"/><path d="m184.21875 321.332031h-21.941406c-30.417969 0-55.167969 24.75-55.167969 55.167969v120.5c0 8.285156 6.714844 15 15 15h64.691406c-1.664062-4.695312-2.582031-9.742188-2.582031-15zm0 0"/><path d="m509.054688 150.671875-107.113282-144.601563c-2.832031-3.816406-7.300781-6.070312-12.054687-6.070312-4.753907 0-9.226563 2.253906-12.054688 6.070312l-107.109375 144.601563c-3.371094 4.550781-3.890625 10.617187-1.34375 15.675781 2.550782 5.058594 7.730469 8.253906 13.398438 8.253906h38.554687v322.398438c0 8.285156 6.714844 15 15 15h107.109375c8.285156 0 15-6.714844 15-15v-322.398438h38.558594c5.664062 0 10.847656-3.195312 13.394531-8.253906 2.550781-5.058594 2.03125-11.125-1.339843-15.675781zm0 0"/><path d="m291.332031 241h-21.945312c-30.417969 0-55.167969 24.746094-55.167969 55.164062v200.835938c0 8.285156 6.71875 15 15 15h64.691406c-1.664062-4.695312-2.578125-9.742188-2.578125-15zm0 0"/></svg>