<svg  style="fill: #f29c2f" height="464pt" viewBox="0 0 464 464" width="464pt" xmlns="http://www.w3.org/2000/svg"><path d="m240 360c0 4.417969-3.582031 8-8 8s-8-3.582031-8-8 3.582031-8 8-8 8 3.582031 8 8zm0 0"/><path d="m168 312c0 4.417969-3.582031 8-8 8s-8-3.582031-8-8 3.582031-8 8-8 8 3.582031 8 8zm0 0"/><path d="m96 360c0 4.417969-3.582031 8-8 8s-8-3.582031-8-8 3.582031-8 8-8 8 3.582031 8 8zm0 0"/><path d="m80 256h96v-80h-96zm16-64h64v16h-64zm0 32h64v16h-64zm0 0"/><path d="m320 296c0 4.417969-3.582031 8-8 8s-8-3.582031-8-8 3.582031-8 8-8 8 3.582031 8 8zm0 0"/><path d="m288 192c7.808594 0 15.359375-1.039062 22.632812-2.808594l-29.074218-87.207031-84.910156-35.382813c-2.992188 9.269532-4.648438 19.140626-4.648438 29.398438 0 52.9375 43.0625 96 96 96zm0 0"/><path d="m384 344c0 4.417969-3.582031 8-8 8s-8-3.582031-8-8 3.582031-8 8-8 8 3.582031 8 8zm0 0"/><path d="m349.929688 22.761719c-16.738282-14.167969-38.335938-22.761719-61.929688-22.761719-37.015625 0-69.144531 21.089844-85.152344 51.855469l83.289063 34.703125zm0 0"/><path d="m325.832031 184.199219c34.167969-14.710938 58.167969-48.695313 58.167969-88.199219 0-23.59375-8.59375-45.191406-22.761719-61.929688l-64.078125 64.082032zm0 0"/><path d="m432 144v256h16v-264c0-13.230469-10.769531-24-24-24h-25.28125c-.78125 5.464844-1.886719 10.816406-3.4375 16h20.71875c8.824219 0 16 7.175781 16 16zm0 0"/><path d="m48 400h123.3125l2.34375 2.34375c8.808594 8.808594 20.511719 13.65625 32.976562 13.65625h50.742188c12.457031 0 24.167969-4.847656 32.976562-13.65625l2.335938-2.34375h123.3125v-256h-26.960938c-18.023437 37.777344-56.472656 64-101.039062 64s-83.015625-26.222656-101.039062-64h-138.960938zm192-160h160v16h-160zm-32 0h16v16h-16zm-144-80h128v112h-128zm24 176c5.382812 0 10.304688 1.839844 14.3125 4.847656l34.496094-23c-.480469-1.878906-.808594-3.816406-.808594-5.847656 0-13.230469 10.769531-24 24-24s24 10.769531 24 24c0 2.03125-.328125 3.96875-.808594 5.847656l34.496094 23c4.007812-3 8.929688-4.847656 14.3125-4.847656 4.640625 0 8.9375 1.382812 12.609375 3.671875l44.804687-35.847656c-.855468-2.464844-1.414062-5.070313-1.414062-7.824219 0-13.230469 10.769531-24 24-24s24 10.769531 24 24c0 2.488281-.488281 4.847656-1.191406 7.105469l27.910156 20.925781c3.800781-2.535156 8.371094-4.03125 13.28125-4.03125 13.230469 0 24 10.769531 24 24s-10.769531 24-24 24-24-10.769531-24-24c0-2.488281.488281-4.847656 1.191406-7.105469l-27.910156-20.925781c-3.800781 2.535156-8.371094 4.03125-13.28125 4.03125-4.640625 0-8.9375-1.382812-12.609375-3.671875l-44.804687 35.847656c.855468 2.464844 1.414062 5.070313 1.414062 7.824219 0 13.230469-10.769531 24-24 24s-24-10.769531-24-24c0-2.023438.328125-3.96875.808594-5.847656l-34.496094-23c-4.007812 3.007812-8.929688 4.847656-14.3125 4.847656s-10.304688-1.839844-14.3125-4.847656l-34.496094 23c.480469 1.878906.808594 3.816406.808594 5.847656 0 13.230469-10.769531 24-24 24s-24-10.769531-24-24 10.769531-24 24-24zm0 0"/><path d="m299.183594 416c-11.503906 10.34375-26.222656 16-41.816406 16h-50.742188c-15.59375 0-30.3125-5.65625-41.816406-16h-164.808594v24c0 13.230469 10.769531 24 24 24h416c13.230469 0 24-10.769531 24-24v-24zm-251.183594 32h-16v-16h16zm32 0h-16v-16h16zm32 0h-16v-16h16zm320 0h-64v-16h64zm0 0"/><path d="m32 144c0-8.824219 7.175781-16 16-16h132.71875c-1.542969-5.183594-2.65625-10.535156-3.4375-16h-137.28125c-13.230469 0-24 10.769531-24 24v264h16zm0 0"/></svg>