<svg  style="fill: #f29c2f"  enable-background="new 0 0 480.001 480.001" viewBox="0 0 480.001 480.001" xmlns="http://www.w3.org/2000/svg"><path d="m123.584 102.504c-9.002-9.304-21.406-14.541-34.352-14.504h-2.464c-12.933-.026-25.319 5.21-34.312 14.504-8.46 8.698-12.952 20.503-12.416 32.624l.936 21.536c1.418 24.644 22.039 43.772 46.72 43.336h.608c24.681.436 45.302-18.692 46.72-43.336l.976-21.536c.536-12.121-3.956-23.926-12.416-32.624zm-4.544 53.496c-1.084 16.063-14.642 28.414-30.736 28h-.608c-16.094.414-29.652-11.937-30.736-28l-.28-6.536c15.25-.679 29.893-6.174 41.824-15.696 4.92 7.276 12.347 12.485 20.864 14.632zm-10.032-37.816c-.445-3.412-3.023-6.157-6.4-6.816-3.365-.696-6.795.854-8.496 3.84-.104.168-10.032 15.872-38.048 18.272-.069-7.412 2.782-14.553 7.936-19.88 5.973-6.155 14.191-9.62 22.768-9.6h2.464c8.577-.02 16.795 3.445 22.768 9.6 4.667 4.863 7.437 11.238 7.808 17.968-5.536-2.474-9.552-7.45-10.8-13.384z"/><path d="m435.584 294.504c-9.002-9.304-21.406-14.541-34.352-14.504h-2.464c-12.933-.026-25.319 5.21-34.312 14.504-8.46 8.698-12.953 20.503-12.416 32.624l.936 21.536c1.418 24.644 22.039 43.772 46.72 43.336h.608c24.681.436 45.302-18.692 46.72-43.336l.976-21.536c.536-12.121-3.956-23.926-12.416-32.624zm-3.584 31.976-.96 21.52c-1.084 16.063-14.642 28.414-30.736 28h-.608c-16.094.414-29.652-11.937-30.736-28l-.96-21.56c-.309-7.751 2.584-15.287 8-20.84 5.973-6.155 14.191-9.62 22.768-9.6h2.464c8.577-.02 16.795 3.445 22.768 9.6 5.426 5.563 8.32 13.116 8 20.88z"/><path d="m247.134 116.344c-8.584-8.303-22.206-8.303-30.79 0l-89.312 89.312c-1.502 1.502-3.54 2.346-5.664 2.344h-81.368c-22.08.026-39.974 17.92-40 40v112c0 13.255 10.745 24 24 24 2.725 0 5.43-.463 8-1.368v9.368c0 4.418 3.582 8 8 8h96c4.418 0 8-3.582 8-8v-129.712c-.001-2.024.765-3.974 2.144-5.456l101.512-109.176c8.503-8.79 8.269-22.809-.522-31.312zm-10.903 20.125c-.029.028-.058.056-.087.083l-101.744 109.392c-4.12 4.445-6.407 10.283-6.4 16.344v121.712h-80v-120c0-4.418-3.582-8-8-8s-8 3.582-8 8v96c0 4.418-3.582 8-8 8s-8-3.582-8-8v-112c0-13.255 10.745-24 24-24h81.368c6.371.02 12.485-2.512 16.976-7.032l89.312-89.312c2.435-2.31 6.253-2.31 8.688 0 2.402 2.465 2.352 6.411-.113 8.813z"/><path d="m88 232c-4.418 0-8 3.582-8 8v96c0 4.418 3.582 8 8 8s8-3.582 8-8v-96c0-4.418-3.582-8-8-8z"/><path d="m259.544 294.504c-8.993-9.294-21.379-14.53-34.312-14.504h-2.464c-12.933-.026-25.319 5.21-34.312 14.504-8.46 8.698-12.953 20.503-12.416 32.624l.936 21.536c1.418 24.644 22.039 43.772 46.72 43.336h.608c24.681.436 45.302-18.692 46.72-43.336l.936-21.536c.537-12.121-3.956-23.926-12.416-32.624zm-3.544 31.976-.96 21.52c-1.084 16.063-14.642 28.414-30.736 28h-.608c-16.094.414-29.652-11.937-30.736-28l-.96-21.56c-.309-7.751 2.584-15.287 8-20.84 5.973-6.155 14.191-9.62 22.768-9.6h2.464c8.577-.02 16.795 3.445 22.768 9.6 5.426 5.563 8.32 13.116 8 20.88z"/><path d="m265.336 400h-82.672c-21.344.022-38.642 17.32-38.664 38.664v33.336c0 4.418 3.582 8 8 8s8-3.582 8-8v-33.336c.013-12.512 10.153-22.651 22.664-22.664h82.672c12.512.013 22.651 10.152 22.664 22.664v33.336c0 4.418 3.582 8 8 8s8-3.582 8-8v-33.336c-.022-21.344-17.32-38.642-38.664-38.664z"/><path d="m441.336 400h-82.672c-21.344.022-38.642 17.32-38.664 38.664v33.336c0 4.418 3.582 8 8 8s8-3.582 8-8v-33.336c.013-12.512 10.153-22.651 22.664-22.664h82.672c12.512.013 22.651 10.152 22.664 22.664v33.336c0 4.418 3.582 8 8 8s8-3.582 8-8v-33.336c-.022-21.344-17.32-38.642-38.664-38.664z"/><path d="m456.4 0h-280.8c-13.137.128-23.693 10.863-23.6 24v120c0 4.418 3.582 8 8 8s8-3.582 8-8v-96h296v192c.103 4.305-3.295 7.882-7.6 8h-273c-4.418 0-8 3.582-8 8s3.582 8 8 8h273c13.137-.128 23.693-10.863 23.6-24v-216c.093-13.137-10.463-23.872-23.6-24zm7.6 32h-296v-8c-.103-4.305 3.295-7.882 7.6-8h280.8c4.305.118 7.703 3.695 7.6 8z"/><path d="m440 102c-4.418 0-8 3.582-8 8v114c0 4.418 3.582 8 8 8s8-3.582 8-8v-114c0-4.418-3.582-8-8-8z"/><path d="m408 152c-4.418 0-8 3.582-8 8v64c0 4.418 3.582 8 8 8s8-3.582 8-8v-64c0-4.418-3.582-8-8-8z"/><path d="m376 136c-4.418 0-8 3.582-8 8v80c0 4.418 3.582 8 8 8s8-3.582 8-8v-80c0-4.418-3.582-8-8-8z"/><path d="m344 184c-4.418 0-8 3.582-8 8v32c0 4.418 3.582 8 8 8s8-3.582 8-8v-32c0-4.418-3.582-8-8-8z"/><path d="m444.44 65.344c-3.676-2.452-8.644-1.46-11.096 2.216l-27.312 40.96-25.232-18.92c-3.521-2.669-8.539-1.977-11.208 1.544-.304.401-.569.829-.792 1.28l-31.152 62.312-30.448 22.864c-3.535 2.651-4.251 7.665-1.6 11.2s7.665 4.251 11.2 1.6l32-24c1.008-.742 1.83-1.709 2.4-2.824l27.704-55.424 24.296 18.248c3.534 2.651 8.549 1.936 11.2-1.599.089-.118.174-.239.256-.361l32-48c2.452-3.676 1.46-8.644-2.216-11.096z"/><path d="m288 64h-96c-4.418 0-8 3.582-8 8s3.582 8 8 8h96c4.418 0 8-3.582 8-8s-3.582-8-8-8z"/><path d="m336 64h-16c-4.418 0-8 3.582-8 8s3.582 8 8 8h16c4.418 0 8-3.582 8-8s-3.582-8-8-8z"/></svg>